<svg id="module_id" width="200" height="200" xmlns="http://www.w3.org/2000/svg">
 <defs>
  <clipPath id="cistern_tank_clip">
   <path d="m91.434 4.334c-17.193 0-31.489 1.9607-34.506 4.5469l-38.617 32.682v141.99c0.0016 6.6956 32.738 12.123 73.121 12.123 40.384 1.2e-4 73.123-5.4272 73.125-12.123v-141.99l-38.453-32.539h-0.00391c-2.6484-2.6566-17.158-4.6895-34.666-4.6895z" fill="#000000"></path>
  </clipPath>
 </defs>
 <g id="container_layer">
  <g id="cistern_tank">
   <path id="cistern_tank_back" d="m91.434 4.334c-17.193 0-31.489 1.9607-34.506 4.5469l-38.617 32.682v141.99c0.0016 6.6956 32.738 12.123 73.121 12.123 40.384 1.2e-4 73.123-5.4272 73.125-12.123v-141.99l-38.453-32.539h-0.00391c-2.6484-2.6566-17.158-4.6895-34.666-4.6895z" fill="#000000"/>
   <g clip-path="url(#cistern_tank_clip)">
    <g id="cistern_tank_level" class="fillSignal strokeStandard" fill="#00a5ff" stroke="#dbdbeb" stroke-width="3">
     <rect id="cistern_tank_level_fill" x="18.311" y="44.731" width="146.25" height="155.26"/>
     <ellipse id="cistern_tank_level_top" cx="91.434" cy="43.582" rx="73.124" ry="12.124"/>
    </g>
   </g>
   <path id="cistern_tank_failure" d="m55.282 166.04q-1.2174 0-2.1378-0.91518-0.92045-0.94472-0.92045-2.1256 0-2.037 3.8006-5.0188l7.0964-5.314q3.8303-3.277 3.8303-5.993 0-3.4246-3.2364-6.3177-3.1177-2.8046-6.6213-2.8046-1.8706 0-4.7507 1.919-2.8801 1.8894-3.563 1.8894-1.2174 0-2.1081-0.97423-0.86106-0.97422-0.86106-2.1846 0-2.3322 4.5429-4.635 4.0678-2.0666 6.7401-2.0666 5.9681 0 10.838 4.635 4.8695 4.635 4.8695 10.539 0 4.3102-2.791 7.6462-1.6627 2.0075-6.1759 5.1959-4.5429 3.277-6.3244 5.314-1.0392 1.2104-2.2269 1.2104zm-1.6331 11.218q-1.3064 0-2.3754-0.88567-1.0392-0.85614-1.0392-2.0961 0-1.8304 0.97984-3.3065 1.0986-1.6532 2.8207-1.6532 2.8504 0 2.8504 3.4836 0 1.6237-0.77199 2.9227-0.95014 1.5352-2.4644 1.5352z" fill="#dbdbeb" aria-label="?"/>
   <path id="cistern_tank_alarm" d="m64.223 62.816c-3.0252 5.2785-5.8587 11.005-6.4962 17.489-0.6375 6.4849 1.0199 13.651 6.5914 21.442l2.8718-2.0536c-5.1782-7.2416-6.5068-13.379-5.9499-19.044 0.55691-5.6651 3.0983-10.936 6.0451-16.077zm54.422 0-3.0622 1.7566c2.9468 5.1417 5.4882 10.412 6.0451 16.077 0.55691 5.6651-0.7717 11.803-5.9499 19.044l2.8718 2.0536c5.5715-7.7915 7.2289-14.958 6.5914-21.442-0.63749-6.4849-3.471-12.211-6.4962-17.489zm-47.207 2.2326c-3.0731 4.7686-5.3297 9.7007-5.653 15.186-0.32336 5.4858 1.3313 11.407 5.6621 17.999l2.9489-1.938c-4.0301-6.1345-5.3625-11.209-5.0886-15.855 0.27386-4.6461 2.1987-8.9813 5.0977-13.48zm40.158 0-2.967 1.913c2.899 4.4984 4.8216 8.8336 5.0954 13.48 0.27386 4.6461-1.0562 9.7206-5.0863 15.855l2.9512 1.938c4.3307-6.5921 5.9832-12.514 5.6598-17.999-0.32334-5.4858-2.5799-10.418-5.653-15.186zm-20.178 1.4529c-5.8729 0-10.706 4.5014-11.589 11.855v12.328h23.179v-12.328c-0.72721-7.4391-5.8504-11.855-11.589-11.855zm-11.587 27.186-7.6862 9.3431 3.7445-5e-3 12.231-0.0159c0.14274 0.24963 0.30237 0.50518 0.4828 0.76613 0.68559 0.99154 1.7915 1.6977 3.1778 1.6977 0.97495 0 1.6685-0.79761 2.1669-1.7566 0.12904-0.24832 0.23281-0.48085 0.33999-0.71624l16.444-0.0226-7.6975-9.291z" color="#000000" fill="#000000" style="-inkscape-stroke:none"/>
   <path id="cistern_tank_frame" d="m57.027 8.7959-38.717 32.767v141.99c0.0016 6.6957 32.739 12.123 73.122 12.124 40.384 1.2e-4 73.123-5.4278 73.125-12.124v-141.99l-38.453-32.539" fill="none" stroke="#dbdbeb" stroke-width="3"/>
   <path id="cistern_tank_top" d="m126.54 9.8977c0 3.0723-15.716 5.5628-35.102 5.5628-19.386 0-35.102-2.4906-35.102-5.5628-1e-6 -3.0723 15.716-5.5628 35.102-5.5628 19.386 0 35.102 2.4906 35.102 5.5628z" fill="none" stroke="#dbdbeb" stroke-width="3"/>
  </g>
  <g id="cistern_pump">
   <path id="cistern_pump_camber" d="m127.62 130c-16.569 0-30 13.431-30 30 0.02711 9.2208 4.293 17.917 11.568 23.582l-12.068-0.082v6.5c0.547 0.0541 29.951-0.024 30.5 0 16.569 0 30-13.431 30-30s-13.431-30-30-30z" fill="#000000"/>
   <path id="cistern_pump_pipe" d="m158.12 160.01v-110.01c0-4.6944 3.8056-8.5 8.5-8.5h15.25v-7h-15.25c-9.2685 0-15.5 7.1154-15.5 15.5v90.558" fill="#000000"/>
   <g id="cistern_pump_rotor" class="animation_cistern_pump transition_cistern_pump" stroke="#dbdbeb" stroke-width="3">
    <circle cx="127.62" cy="160" r="6.5" fill="#dbdbeb"/>
    <path d="m127.62 186.5v-53" fill="none"/>
    <path d="m104.68 173.25 45.899-26.5" fill="none"/>
    <path d="m104.68 146.75 45.899 26.5" fill="none"/>
   </g>
   <path id="cistern_pump_warn" class="animation_pump_warn" d="m127.63 141c-0.46806 0-0.89713 0.25335-1.1252 0.6597l-15.856 28.29c-0.10973 0.19718-0.16409 0.41353-0.16409 0.62956 0 0.66695 0.53486 1.2826 1.2892 1.2826h31.712c0.75954 0 1.2892-0.62247 1.2892-1.2826 0-0.21603-0.0543-0.43238-0.16408-0.62956l-15.856-28.29c-0.22631-0.40635-0.6588-0.6597-1.1252-0.6597zm0.16065 9.4735c0.59609 0 0.8941 0.29803 0.8941 0.89411v11.181c0 0.59607-0.29801 0.89411-0.8941 0.89411s-0.89409-0.29804-0.89409-0.89411c0-0.27459-0.0104-0.68312-0.0302-1.2256-0.0137-0.54919-0.0201-0.95773-0.0201-1.2256 0-0.97113 7e-3 -2.4245 0.0201-4.36 0.0201-1.9422 0.0302-3.399 0.0302-4.3701 0-0.59608 0.298-0.89411 0.89409-0.89411zm-0.28129 14.477c0.2612 0 0.52911 0.17413 0.8037 0.52239 0.25451 0.32819 0.38174 0.62622 0.38174 0.89412 0 0.2411-0.097 0.44872-0.29132 0.62286-0.18752 0.18083-0.40185 0.27125-0.64297 0.27125-0.26789 0-0.53579-0.17414-0.80368-0.52241-0.2612-0.32816-0.3918-0.62955-0.3918-0.90415 0-0.24111 0.0938-0.44873 0.2813-0.62286 0.19422-0.17413 0.41524-0.2612 0.66303-0.2612z" clip-rule="evenodd" fill="#d40000" fill-rule="evenodd" stroke-linejoin="round" stroke-miterlimit="2"/>
   <path id="cistern_pump_lock" d="m135.54 156.19v-5.2777c0-4.3714-3.5453-7.9167-7.9167-7.9167-4.3713 0-7.9166 3.5454-7.9166 7.9167v5.2777h-3.9584v18.472h23.75v-18.472zm-13.194 0v-5.2777c0-2.9107 2.367-5.2778 5.2778-5.2778 2.9107 0 5.2778 2.3671 5.2778 5.2778v5.2777z" fill="#00a5ff"/>
   <path id="cistern_pump_frame" d="m166.62 34.5c-9.2685 0-15.5 7.1154-15.5 15.5v90.559c-5.7934-7.0066-14.409-11.058-23.5-11.059-16.845 0-30.5 13.655-30.5 30.5 3e-6 9.4562 4.3053 17.906 11.061 23.5h-11.061v7h30.5c16.84 0 30.5-13.648 30.5-30.488v-110.01c0-4.6944 3.8056-8.5 8.5-8.5h15.25v-7z" fill="none" stroke="#dbdbeb" stroke-width="3"/>
  </g>
 </g>
 <style>
    @keyframes rotate_cistern_pump { from { transform: rotateZ(0deg);} to { transform: rotateZ(-60deg);} }
    @keyframes blink_pump_warn { 0% { opacity: 0;} 40% { opacity: 1;} 60% { opacity: 1;} 100% {opacity: 0;} }
    .transition_cistern_pump { transition-property: all; transition-duration: 0.5s; }
    .animation_cistern_pump { animation-timing-function: linear; animation-name: rotate_cistern_pump; animation-duration: 0.5s; animation-iteration-count: infinite; animation-play-state: paused; transform-origin: 128px 160px; }
    .animation_pump_warn { animation-timing-function: linear; animation-name: blink_pump_warn; animation-duration: 2s; animation-iteration-count: infinite; }
 </style>
</svg>